# xmcd
# 
# Track frame offsets:
#     150
#     10400
#     22650
#     33895
#     45052
#     56992
#     67800
#     79050
#     90890
#     103167
#     116345
#     128650
#     139960
#     152182
# 
# Disc length: 2181
# 
# Revision: 2
# Processed by: cddbd v1.5.2PL0 Copyright (c) Steve Scherf et al.
# Submitted via: BonkEnc v1.0.5
# 
DISCID=a008830e
DTITLE=Lester Flatt and Earl Scruggs - The Mercury Sessions, Volume 1
DYEAR=0
DGENRE=
TTITLE0=Take Me In A Lifeboat
TTITLE1=We'll Meet Again Sweetheart
TTITLE2=Old Salty Dog Blues
TTITLE3=Farewell Blues
TTITLE4=Is It Too Late Now
TTITLE5=Cora is Gone
TTITLE6=So Happy I'll Be
TTITLE7=Roll In My Sweet Baby's Arms
TTITLE8=No Mother Or Dad
TTITLE9=Back To The Cross
TTITLE10=Pike County Breakdown
TTITLE11=I'll Just Pretend
TTITLE12=Down The Road
TTITLE13=I'll Be Going To Heaven Sometime
EXTD=
EXTT0=
EXTT1=
EXTT2=
EXTT3=
EXTT4=
EXTT5=
EXTT6=
EXTT7=
EXTT8=
EXTT9=
EXTT10=
EXTT11=
EXTT12=
EXTT13=
PLAYORDER=
